<?xml version="1.0" encoding="UTF-8"?>
<svg id="Calque_1" data-name="Calque 1" xmlns="http://www.w3.org/2000/svg" viewBox="0 0 531.21 506.06">
  <defs>
    <style>
      .cls-1 {
        fill: #d40058;
      }

      .cls-1, .cls-2 {
        stroke-width: 0px;
      }

      .cls-2 {
        fill: #fff;
      }
    </style>
  </defs>
  <g>
    <path class="cls-1" d="m527.18,175.32c0-1.18,0-1.88,0-2.59-.01-18.56-.13-37.12,0-55.68.08-10.43-3.79-18.96-11.37-25.94-29.43-27.08-58.87-54.15-88.3-81.23-2.56-2.35-5.44-4.21-8.6-5.62C412.54,1.44,405.85.01,398.89.01,289.05,0,179.22,0,69.38,0c-6.34,0-12.62.55-18.82,1.85-16.3,3.42-29.54,11.55-38.69,25.68C4.11,39.5.1,52.78.08,66.99-.05,151.14.02,235.3,0,319.46c0,5.68,1.88,10.64,5.43,15.02,2.93,3.62,6.71,6.12,10.84,8.15,27.49,13.47,55,26.92,82.45,40.46,9.51,4.69,19.51,7.04,30.07,7.04,116.4.01,232.79,0,349.19,0,6.16,0,12.31-.25,18.39-1.4,15.38-2.9,25.13-11.79,28.93-27.09,1.47-5.94,1.93-11.97,1.92-18.07,0-41.6-.04-83.2.03-124.8.01-8.1-3.23-14.53-9.15-19.77-3.29-2.92-6.69-5.71-10.05-8.56-29.87-25.38-59.74-50.75-89.62-76.12-.57-.49-1.21-.9-2.1-1.56,0,1.21,0,1.99,0,2.77.02,5.84.04,11.68.05,17.52.03,25.68.06,51.36.07,77.04.01,23.12,0,46.24,0,69.36,0,3.35.1,6.73-.18,10.06-.97,11.37-6.36,19.94-16.6,25.23-6.3,3.25-13.07,4.7-20.13,4.71-29.84.03-59.68.02-89.52.01-3.58,0-3.21.35-3.21-3.2,0-67.68,0-135.36,0-203.03,0-1.12.03-2.24-.05-3.36-.27-3.57-2.26-5.93-5.48-7.2-3.14-1.23-5.96-.42-8.41,1.82-2.11,1.93-2.63,4.38-2.63,7.16.04,68.08.03,136.16.03,204.23,0,.56.01,1.12,0,1.68-.04,1.85-.05,1.88-1.86,1.9-4.96.04-9.92.06-14.88.06-33.12,0-66.24,0-99.36,0-4.02,0-3.52.57-3.52-3.59,0-67.68,0-135.36-.02-203.03,0-1.35,0-2.73-.24-4.06-.71-4-4.65-6.97-8.72-6.68-3.91.27-7.39,3.73-7.66,7.66-.06.88-.03,1.76-.03,2.64,0,60.56,0,121.12,0,181.67,0,7.76,0,15.52,0,23.28,0,2.1-.02,2.12-2.09,2.12-32,.02-64,.04-96,.02-3.97,0-7.77-.99-11.24-2.96-4.46-2.52-7.14-6.32-7.8-11.44-.22-1.74-.33-3.5-.33-5.26-.02-76.64-.02-153.27,0-229.91,0-8,1.42-15.75,4.25-23.22,5.59-14.78,15.99-24.18,31.39-27.94,5.94-1.45,12-1.93,18.08-1.93,109.2-.02,218.39-.01,327.59-.01.56,0,1.12-.02,1.68,0,4.1.18,8.14.71,11.78,2.81,3.54,2.04,5.43,5.08,5.42,9.23,0,9.68,0,19.36,0,29.04,0,4.32-.15,8.64,0,12.96.25,7,2.62,12.92,8.21,17.64,33.47,28.31,66.82,56.75,100.22,85.14.54.46,1.11.88,2.07,1.63Z"/>
    <path class="cls-1" d="m527.18,175.32c-.96-.75-1.53-1.17-2.07-1.63-33.4-28.39-66.75-56.84-100.22-85.14-5.59-4.73-7.96-10.65-8.21-17.64-.15-4.31,0-8.64,0-12.96,0-9.68,0-19.36,0-29.04,0-4.15-1.88-7.19-5.42-9.23-3.64-2.1-7.67-2.62-11.78-2.81-.56-.03-1.12,0-1.68,0-109.2,0-218.39,0-327.59.01-6.08,0-12.14.48-18.08,1.93-15.41,3.76-25.81,13.16-31.39,27.94-2.83,7.48-4.25,15.23-4.25,23.22,0,76.64,0,153.27,0,229.91,0,1.75.11,3.52.33,5.26.66,5.11,3.34,8.91,7.8,11.44,3.48,1.97,7.27,2.96,11.24,2.96,32,.02,64,0,96-.02,2.07,0,2.09-.03,2.09-2.12,0-7.76,0-15.52,0-23.28,0-60.56,0-121.12,0-181.67,0-.88-.03-1.76.03-2.64.27-3.92,3.75-7.38,7.66-7.66,4.07-.28,8.01,2.68,8.72,6.68.24,1.33.24,2.71.24,4.06.01,67.68,0,135.36.02,203.03,0,4.16-.5,3.59,3.52,3.59,33.12.02,66.24.01,99.36,0,4.96,0,9.92-.02,14.88-.06,1.82-.01,1.82-.05,1.86-1.9.01-.56,0-1.12,0-1.68,0-68.08,0-136.16-.03-204.23,0-2.78.51-5.23,2.63-7.16,2.45-2.24,5.27-3.05,8.41-1.82,3.23,1.27,5.21,3.63,5.48,7.2.09,1.11.05,2.24.05,3.36,0,67.68,0,135.36,0,203.03,0,3.55-.37,3.2,3.21,3.2,29.84,0,59.68.02,89.52-.01,7.05,0,13.83-1.46,20.13-4.71,10.24-5.29,15.63-13.86,16.6-25.23.28-3.33.18-6.71.18-10.06.01-23.12.02-46.24,0-69.36-.01-25.68-.04-51.36-.07-77.04,0-5.84-.03-11.68-.05-17.52,0-.78,0-1.57,0-2.77.89.66,1.52,1.07,2.1,1.56,29.88,25.37,59.75,50.75,89.62,76.12,3.35,2.85,6.75,5.64,10.05,8.56,5.92,5.24,9.17,11.68,9.15,19.77-.06,41.6-.03,83.2-.03,124.8,0,6.09-.45,12.12-1.92,18.07-3.8,15.3-13.55,24.18-28.93,27.09-6.08,1.15-12.23,1.4-18.39,1.4-116.4,0-232.79,0-349.19,0-10.56,0-20.56-2.36-30.07-7.04-27.46-13.54-54.96-26.98-82.45-40.46-4.14-2.03-7.91-4.53-10.84-8.15C1.89,330.1,0,325.14,0,319.46c.01-84.16-.05-168.31.07-252.47.02-14.2,4.04-27.49,11.79-39.46C21.02,13.4,34.26,5.27,50.56,1.85,56.76.55,63.04,0,69.38,0c109.84,0,219.67,0,329.51.01,6.96,0,13.65,1.43,20.02,4.27,3.16,1.41,6.04,3.27,8.6,5.62,29.43,27.08,58.87,54.15,88.3,81.23,7.59,6.98,11.45,15.5,11.37,25.94-.14,18.56-.02,37.12,0,55.68,0,.7,0,1.41,0,2.59Z"/>
  </g>
  <g>
    <path class="cls-2" d="m23.21,430.77h-.08l-8.59,27.39h-1.66l-8.59-27.39h-.08v27.39h-1.66v-29.63h2.74l8.46,26.64h.08l8.26-26.64h2.78v29.63h-1.66v-27.39Z"/>
    <path class="cls-2" d="m42.81,449.03h-11.27l-2.85,9.13h-1.66l9.21-29.63h2.2l8.88,29.63h-1.66l-2.85-9.13Zm-5.49-18.76h-.08l-5.28,17.26h10.52l-5.16-17.26Z"/>
    <path class="cls-2" d="m49.69,428.53h1.66v29.63h-1.66v-29.63Z"/>
    <path class="cls-2" d="m57.08,450.55c0,.93.15,1.8.46,2.61.31.81.75,1.51,1.32,2.09s1.28,1.05,2.12,1.4c.84.34,1.81.51,2.9.51,1.04,0,1.98-.17,2.84-.52.85-.34,1.58-.82,2.18-1.42.6-.61,1.07-1.31,1.41-2.12.34-.81.5-1.68.5-2.62s-.13-1.78-.38-2.46c-.25-.67-.61-1.24-1.09-1.71-.47-.47-1.04-.87-1.71-1.2s-1.42-.65-2.25-.95l-3.38-1.16c-2-.66-3.51-1.54-4.53-2.61s-1.52-2.63-1.52-4.65c0-1.19.19-2.26.58-3.22.39-.96.93-1.76,1.64-2.43s1.54-1.18,2.51-1.54c.97-.36,2.03-.54,3.2-.54,2.74,0,4.74.73,6.02,2.18,1.27,1.45,1.91,3.41,1.91,5.87h-1.66c0-1.97-.48-3.55-1.45-4.75-.97-1.2-2.52-1.8-4.65-1.8-.84,0-1.65.1-2.42.31-.77.21-1.46.55-2.06,1.03-.6.48-1.08,1.11-1.43,1.88-.35.77-.53,1.73-.53,2.88,0,1.62.4,2.86,1.21,3.73s1.86,1.52,3.17,1.96l4.42,1.54c.95.33,1.79.71,2.55,1.12.75.42,1.38.92,1.9,1.51.51.6.91,1.29,1.19,2.1s.42,1.74.42,2.82c0,1.33-.23,2.5-.68,3.53-.46,1.02-1.07,1.89-1.85,2.59-.77.71-1.69,1.24-2.74,1.6-1.05.36-2.16.54-3.32.54-1.72,0-3.12-.26-4.21-.79-1.09-.53-1.96-1.18-2.59-1.97-.64-.79-1.07-1.62-1.31-2.51-.24-.88-.35-1.69-.35-2.41v-1.95h1.66v1.52Z"/>
    <path class="cls-2" d="m85.09,428.03c1.47,0,2.79.26,3.96.77,1.18.51,2.18,1.37,3.01,2.57.83,1.2,1.47,2.78,1.91,4.73.44,1.95.66,4.37.66,7.24,0,3.24-.3,5.86-.89,7.86-.6,2.01-1.36,3.56-2.3,4.67-.94,1.11-1.97,1.85-3.09,2.22-1.12.37-2.21.56-3.26.56-1.41,0-2.7-.26-3.88-.77-1.18-.51-2.19-1.37-3.03-2.57-.84-1.2-1.5-2.78-1.97-4.73-.47-1.95-.71-4.36-.71-7.24s.24-5.29.73-7.24c.48-1.95,1.15-3.53,2.01-4.73.86-1.2,1.87-2.06,3.03-2.57,1.16-.51,2.43-.77,3.82-.77Zm0,1.49c-1.48,0-2.73.34-3.73,1.03-1.01.69-1.82,1.64-2.43,2.85-.61,1.21-1.06,2.67-1.34,4.37-.28,1.71-.42,3.56-.42,5.57s.12,3.9.36,5.59c.24,1.69.66,3.14,1.26,4.35s1.41,2.16,2.43,2.85c1.02.69,2.31,1.03,3.88,1.03,2.8,0,4.81-1.12,6.04-3.36,1.23-2.24,1.85-5.73,1.85-10.46,0-1.98-.13-3.82-.38-5.51-.25-1.69-.68-3.16-1.28-4.39-.6-1.24-1.41-2.2-2.43-2.89s-2.29-1.03-3.8-1.03Z"/>
    <path class="cls-2" d="m100.69,428.53l13.07,26.89h.08v-26.89h1.66v29.63h-2.2l-13.11-26.89h-.08v26.89h-1.66v-29.63h2.24Z"/>
    <path class="cls-2" d="m130.24,428.53h6.76c1.58,0,3.02.2,4.32.6,1.3.4,2.42,1.15,3.36,2.24.94,1.09,1.67,2.6,2.2,4.52.53,1.92.79,4.41.79,7.45s-.29,5.53-.87,7.45-1.36,3.43-2.34,4.52c-.98,1.09-2.12,1.84-3.4,2.24s-2.64.6-4.05.6h-6.76v-29.63Zm6.74,28.14c3.19,0,5.49-1.09,6.91-3.28,1.41-2.19,2.12-5.53,2.12-10.04,0-2.25-.15-4.22-.44-5.9s-.79-3.07-1.49-4.17c-.7-1.1-1.63-1.92-2.79-2.45-1.16-.54-2.6-.8-4.3-.8h-5.08v26.64h5.08Z"/>
    <path class="cls-2" d="m151.78,428.53h14.15v1.49h-12.49v11.91h11.66v1.49h-11.66v13.24h12.87v1.49h-14.52v-29.63Z"/>
    <path class="cls-2" d="m179.54,450.39c0,2.33.41,4.04,1.24,5.13s2.05,1.64,3.65,1.64c.65,0,1.28-.09,1.9-.27.62-.18,1.17-.49,1.65-.93.48-.44.86-1.04,1.16-1.8.3-.76.44-1.7.44-2.83v-22.8h1.66v22.87c0,2.46-.62,4.29-1.87,5.48-1.25,1.19-2.85,1.78-4.81,1.78-1.33,0-2.42-.21-3.28-.64-.86-.43-1.54-1.02-2.03-1.76-.5-.75-.85-1.64-1.06-2.68-.21-1.04-.31-2.18-.31-3.42v-.66h1.66v.9Z"/>
    <path class="cls-2" d="m196.31,428.53h14.15v1.49h-12.49v11.91h11.66v1.49h-11.66v13.24h12.87v1.49h-14.52v-29.63Z"/>
    <path class="cls-2" d="m215.27,450.25c0,2.07.51,3.74,1.53,5.01,1.02,1.27,2.7,1.9,5.02,1.9,2.19,0,3.82-.63,4.92-1.9,1.09-1.27,1.64-2.94,1.64-5.01v-21.72h1.66v21.46c0,1.66-.24,3.05-.71,4.17-.47,1.12-1.09,2.01-1.87,2.68-.77.66-1.65,1.13-2.64,1.41-.98.28-1.99.42-3.01.42s-2.03-.12-3.01-.35c-.98-.24-1.86-.68-2.64-1.33-.77-.65-1.4-1.54-1.87-2.66-.47-1.12-.71-2.57-.71-4.34v-21.46h1.66v21.72Z"/>
    <path class="cls-2" d="m236.69,428.53l13.07,26.89h.08v-26.89h1.66v29.63h-2.2l-13.11-26.89h-.08v26.89h-1.66v-29.63h2.24Z"/>
    <path class="cls-2" d="m256.27,428.53h14.15v1.49h-12.49v11.91h11.66v1.49h-11.66v13.24h12.87v1.49h-14.52v-29.63Z"/>
    <path class="cls-2" d="m274.53,450.55c0,.93.15,1.8.46,2.61.31.81.75,1.51,1.32,2.09s1.28,1.05,2.12,1.4c.84.34,1.81.51,2.9.51,1.04,0,1.98-.17,2.84-.52.85-.34,1.58-.82,2.18-1.42.6-.61,1.07-1.31,1.41-2.12s.5-1.68.5-2.62-.12-1.78-.38-2.46c-.25-.67-.61-1.24-1.09-1.71-.47-.47-1.04-.87-1.71-1.2s-1.42-.65-2.25-.95l-3.38-1.16c-2-.66-3.51-1.54-4.53-2.61-1.02-1.08-1.52-2.63-1.52-4.65,0-1.19.19-2.26.58-3.22.39-.96.93-1.76,1.64-2.43.71-.66,1.54-1.18,2.51-1.54.97-.36,2.03-.54,3.2-.54,2.74,0,4.74.73,6.02,2.18s1.91,3.41,1.91,5.87h-1.66c0-1.97-.48-3.55-1.45-4.75-.97-1.2-2.52-1.8-4.65-1.8-.84,0-1.65.1-2.42.31-.77.21-1.46.55-2.06,1.03-.6.48-1.08,1.11-1.43,1.88-.35.77-.52,1.73-.52,2.88,0,1.62.4,2.86,1.21,3.73s1.86,1.52,3.17,1.96l4.42,1.54c.95.33,1.79.71,2.55,1.12.75.42,1.38.92,1.9,1.51.51.6.91,1.29,1.19,2.1.28.8.42,1.74.42,2.82,0,1.33-.23,2.5-.68,3.53-.46,1.02-1.07,1.89-1.85,2.59-.78.71-1.69,1.24-2.74,1.6-1.05.36-2.16.54-3.32.54-1.72,0-3.12-.26-4.21-.79-1.09-.53-1.96-1.18-2.59-1.97s-1.07-1.62-1.31-2.51c-.24-.88-.35-1.69-.35-2.41v-1.95h1.66v1.52Z"/>
    <path class="cls-2" d="m315.42,449.03h-11.27l-2.85,9.13h-1.66l9.21-29.63h2.2l8.88,29.63h-1.66l-2.85-9.13Zm-5.49-18.76h-.08l-5.28,17.26h10.52l-5.16-17.26Z"/>
    <path class="cls-2" d="m338.32,452.18h-.08c-.47,2.02-1.36,3.6-2.68,4.75-1.31,1.15-3.02,1.72-5.13,1.72-1.63,0-3.02-.35-4.17-1.04-1.15-.69-2.08-1.69-2.8-3.01s-1.25-2.91-1.6-4.79c-.35-1.88-.52-4.03-.52-6.43s.17-4.43.52-6.33c.35-1.89.9-3.51,1.66-4.83.76-1.33,1.74-2.36,2.95-3.09,1.2-.73,2.66-1.1,4.38-1.1s3.15.33,4.23,1,1.92,1.47,2.51,2.41c.59.94,1,1.93,1.22,2.97.22,1.04.33,1.92.33,2.64h-1.66c0-.99-.13-1.93-.4-2.83-.27-.9-.67-1.7-1.22-2.4-.55-.7-1.23-1.25-2.06-1.66-.83-.41-1.78-.62-2.88-.62-1.48,0-2.74.33-3.76.99s-1.84,1.59-2.46,2.78-1.06,2.65-1.32,4.35c-.27,1.71-.4,3.59-.4,5.65s.12,3.82.36,5.51c.24,1.69.64,3.16,1.22,4.39s1.36,2.21,2.35,2.91c.99.7,2.25,1.05,3.76,1.05,1.43,0,2.61-.31,3.55-.92s1.69-1.42,2.27-2.42c.57-1,.98-2.12,1.22-3.38.24-1.26.36-2.53.36-3.81v-1.8h-8.22v-1.49h9.88v14.82h-1.41v-5.98Z"/>
    <path class="cls-2" d="m343.84,428.53h8.67c1.02,0,1.98.15,2.88.46s1.68.78,2.34,1.41c.66.64,1.18,1.44,1.56,2.41.37.97.56,2.14.56,3.5,0,1.97-.51,3.63-1.52,4.99s-2.5,2.15-4.44,2.37v.08c1.22.08,2.21.32,2.96.7.75.39,1.34.9,1.75,1.55.42.65.7,1.4.83,2.26.14.85.21,1.79.21,2.81v3.1c0,.86.08,1.58.22,2.17s.43,1.19.85,1.8h-1.99c-.22-.44-.4-1-.54-1.67-.14-.67-.21-1.45-.21-2.33v-3.01c0-1.05-.08-1.98-.25-2.81-.17-.83-.48-1.52-.92-2.08-.45-.56-1.07-1-1.85-1.3-.79-.3-1.78-.45-2.99-.45h-6.48v13.65h-1.66v-29.63Zm7.29,14.48c.84,0,1.68-.08,2.52-.25s1.6-.5,2.27-.99c.67-.5,1.22-1.17,1.64-2.04.42-.87.63-2,.63-3.4,0-1.98-.53-3.53-1.58-4.64-1.05-1.11-2.5-1.67-4.35-1.67h-6.77v12.99h5.63Z"/>
    <path class="cls-2" d="m364.59,428.53h14.15v1.49h-12.49v11.91h11.66v1.49h-11.66v13.24h12.87v1.49h-14.53v-29.63Zm9.34-8.13h1.99l-3.86,5.81h-1.37l3.24-5.81Z"/>
    <path class="cls-2" d="m382.27,428.53h14.15v1.49h-12.49v11.91h11.66v1.49h-11.66v13.24h12.87v1.49h-14.53v-29.63Zm9.34-8.13h1.99l-3.86,5.81h-1.37l3.24-5.81Z"/>
    <path class="cls-2" d="m399.94,428.53h14.15v1.49h-12.49v11.91h11.66v1.49h-11.66v13.24h12.87v1.49h-14.53v-29.63Z"/>
    <path class="cls-2" d="m427.58,428.53h7.68c1.74.03,3.14.33,4.19.89,1.05.57,1.86,1.26,2.43,2.07.57.82.95,1.7,1.14,2.66.19.95.29,1.82.29,2.59,0,2.52-.74,4.52-2.21,6-1.48,1.48-3.56,2.22-6.26,2.22h-5.59v13.2h-1.66v-29.63Zm7.46,14.94c.9,0,1.75-.12,2.54-.37s1.5-.64,2.1-1.17c.6-.53,1.08-1.23,1.43-2.09.35-.86.53-1.89.53-3.09,0-2.13-.55-3.79-1.64-4.96s-2.66-1.76-4.71-1.76h-6.06v13.45h5.8Z"/>
    <path class="cls-2" d="m458.35,449.03h-11.27l-2.85,9.13h-1.66l9.21-29.63h2.2l8.88,29.63h-1.66l-2.85-9.13Zm-5.49-18.76h-.08l-5.28,17.26h10.52l-5.16-17.26Z"/>
    <path class="cls-2" d="m465.22,428.53h8.67c1.02,0,1.98.15,2.88.46s1.68.78,2.34,1.41c.66.64,1.18,1.44,1.56,2.41.37.97.56,2.14.56,3.5,0,1.97-.51,3.63-1.52,4.99s-2.5,2.15-4.44,2.37v.08c1.22.08,2.21.32,2.96.7.75.39,1.34.9,1.75,1.55.42.65.7,1.4.83,2.26.14.85.21,1.79.21,2.81v3.1c0,.86.08,1.58.22,2.17s.43,1.19.85,1.8h-1.99c-.22-.44-.4-1-.54-1.67-.14-.67-.21-1.45-.21-2.33v-3.01c0-1.05-.08-1.98-.25-2.81-.17-.83-.48-1.52-.92-2.08-.45-.56-1.07-1-1.85-1.3-.79-.3-1.78-.45-2.99-.45h-6.48v13.65h-1.66v-29.63Zm7.29,14.48c.84,0,1.68-.08,2.52-.25s1.6-.5,2.27-.99c.67-.5,1.22-1.17,1.64-2.04.42-.87.63-2,.63-3.4,0-1.98-.53-3.53-1.58-4.64-1.05-1.11-2.5-1.67-4.35-1.67h-6.77v12.99h5.63Z"/>
    <path class="cls-2" d="m495.93,428.53h1.66v28.14h12.49v1.49h-14.15v-29.63Z"/>
    <path class="cls-2" d="m526.7,449.03h-11.27l-2.85,9.13h-1.66l9.21-29.63h2.2l8.88,29.63h-1.66l-2.85-9.13Zm-5.49-18.76h-.08l-5.28,17.26h10.52l-5.16-17.26Z"/>
  </g>
  <g>
    <path class="cls-2" d="m2.47,475.93h14.19v1.49H4.13v11.91h11.66v1.49H4.13v14.73h-1.66v-29.63Z"/>
    <path class="cls-2" d="m19.32,475.93h14.15v1.49h-12.49v11.91h11.66v1.49h-11.66v13.24h12.87v1.49h-14.52v-29.63Zm9.34-8.13h1.99l-3.86,5.81h-1.37l3.24-5.81Z"/>
    <path class="cls-2" d="m36.95,475.93h6.76c1.58,0,3.02.2,4.32.6,1.3.4,2.42,1.15,3.36,2.24.94,1.09,1.67,2.6,2.2,4.52.53,1.92.79,4.41.79,7.45s-.29,5.53-.87,7.45-1.36,3.43-2.34,4.52c-.98,1.09-2.12,1.84-3.4,2.24s-2.64.6-4.05.6h-6.76v-29.63Zm6.74,28.14c3.19,0,5.49-1.09,6.91-3.28s2.12-5.53,2.12-10.04c0-2.25-.15-4.22-.44-5.9s-.79-3.07-1.49-4.17c-.7-1.1-1.63-1.92-2.79-2.45-1.16-.54-2.6-.8-4.3-.8h-5.08v26.64h5.08Z"/>
    <path class="cls-2" d="m58.45,475.93h14.15v1.49h-12.49v11.91h11.66v1.49h-11.66v13.24h12.87v1.49h-14.52v-29.63Zm9.34-8.13h1.99l-3.86,5.81h-1.37l3.24-5.81Z"/>
    <path class="cls-2" d="m76.09,475.93h8.67c1.02,0,1.98.15,2.88.46.9.3,1.68.78,2.34,1.41.66.64,1.18,1.44,1.56,2.41.37.97.56,2.14.56,3.5,0,1.97-.51,3.63-1.52,4.99-1.02,1.36-2.5,2.15-4.45,2.37v.08c1.22.08,2.21.32,2.96.7.75.39,1.34.9,1.75,1.55.42.65.7,1.4.84,2.26.14.85.21,1.79.21,2.81v3.1c0,.86.07,1.58.22,2.17s.43,1.19.85,1.8h-1.99c-.22-.44-.4-1-.54-1.67-.14-.67-.21-1.45-.21-2.33v-3.01c0-1.05-.08-1.98-.25-2.81-.17-.83-.48-1.52-.93-2.08-.45-.56-1.07-1-1.85-1.3-.79-.3-1.78-.45-2.99-.45h-6.48v13.65h-1.66v-29.63Zm7.29,14.48c.84,0,1.68-.08,2.52-.25.84-.17,1.6-.5,2.27-.99.67-.5,1.22-1.17,1.64-2.04.42-.87.63-2,.63-3.4,0-1.98-.53-3.53-1.58-4.64-1.05-1.11-2.5-1.67-4.35-1.67h-6.77v12.99h5.64Z"/>
    <path class="cls-2" d="m109.88,496.43h-11.27l-2.85,9.13h-1.66l9.21-29.63h2.2l8.88,29.63h-1.66l-2.85-9.13Zm-5.49-18.76h-.08l-5.28,17.26h10.52l-5.16-17.26Z"/>
    <path class="cls-2" d="m119.87,477.42h-7.88v-1.49h17.43v1.49h-7.89v28.14h-1.66v-28.14Z"/>
    <path class="cls-2" d="m132.07,475.93h1.66v29.63h-1.66v-29.63Z"/>
    <path class="cls-2" d="m147.47,475.43c1.47,0,2.79.26,3.96.77,1.18.51,2.18,1.37,3.01,2.57.83,1.2,1.47,2.78,1.91,4.73.44,1.95.66,4.37.66,7.24,0,3.24-.3,5.86-.89,7.86-.6,2.01-1.36,3.56-2.3,4.67-.94,1.11-1.97,1.85-3.09,2.22-1.12.37-2.21.56-3.26.56-1.41,0-2.7-.26-3.88-.77-1.18-.51-2.19-1.37-3.03-2.57-.84-1.2-1.5-2.78-1.97-4.73-.47-1.95-.71-4.36-.71-7.24s.24-5.29.73-7.24c.48-1.95,1.15-3.53,2.01-4.73.86-1.2,1.87-2.06,3.03-2.57,1.16-.51,2.43-.77,3.82-.77Zm0,1.49c-1.48,0-2.73.34-3.73,1.03-1.01.69-1.82,1.64-2.43,2.85-.61,1.21-1.06,2.67-1.34,4.37-.28,1.71-.42,3.56-.42,5.57s.12,3.9.36,5.59c.24,1.69.66,3.14,1.26,4.35s1.41,2.16,2.43,2.85c1.02.69,2.31,1.03,3.88,1.03,2.8,0,4.81-1.12,6.04-3.36,1.23-2.24,1.85-5.73,1.85-10.46,0-1.98-.13-3.82-.38-5.51-.25-1.69-.68-3.16-1.28-4.39-.6-1.24-1.41-2.2-2.43-2.89s-2.29-1.03-3.8-1.03Z"/>
    <path class="cls-2" d="m163.03,475.93l13.07,26.89h.08v-26.89h1.66v29.63h-2.2l-13.11-26.89h-.08v26.89h-1.66v-29.63h2.24Z"/>
    <path class="cls-2" d="m203.07,478.42h-.08l-5.6,27.14h-2.07l-6.43-29.63h1.66l5.77,27.14h.08l5.56-27.14h2.12l5.6,27.14h.08l5.77-27.14h1.66l-6.47,29.63h-2.16l-5.48-27.14Z"/>
    <path class="cls-2" d="m232.47,496.43h-11.27l-2.85,9.13h-1.66l9.21-29.63h2.2l8.88,29.63h-1.66l-2.85-9.13Zm-5.49-18.76h-.08l-5.28,17.26h10.52l-5.16-17.26Z"/>
    <path class="cls-2" d="m239.3,475.93h1.66v28.14h12.49v1.49h-14.15v-29.63Z"/>
    <path class="cls-2" d="m256.94,475.93h1.66v28.14h12.49v1.49h-14.15v-29.63Z"/>
    <path class="cls-2" d="m283.21,475.43c1.47,0,2.79.26,3.96.77,1.18.51,2.18,1.37,3.01,2.57.83,1.2,1.47,2.78,1.91,4.73.44,1.95.66,4.37.66,7.24,0,3.24-.3,5.86-.89,7.86-.6,2.01-1.36,3.56-2.3,4.67s-1.97,1.85-3.09,2.22c-1.12.37-2.21.56-3.26.56-1.41,0-2.7-.26-3.88-.77s-2.19-1.37-3.03-2.57c-.84-1.2-1.5-2.78-1.97-4.73-.47-1.95-.71-4.36-.71-7.24s.24-5.29.73-7.24c.48-1.95,1.15-3.53,2.01-4.73.86-1.2,1.87-2.06,3.03-2.57,1.16-.51,2.43-.77,3.82-.77Zm0,1.49c-1.48,0-2.73.34-3.73,1.03-1.01.69-1.82,1.64-2.43,2.85-.61,1.21-1.06,2.67-1.34,4.37-.28,1.71-.42,3.56-.42,5.57s.12,3.9.36,5.59c.24,1.69.66,3.14,1.26,4.35.6,1.21,1.41,2.16,2.43,2.85s2.31,1.03,3.88,1.03c2.8,0,4.81-1.12,6.04-3.36,1.23-2.24,1.85-5.73,1.85-10.46,0-1.98-.13-3.82-.38-5.51-.25-1.69-.68-3.16-1.28-4.39-.6-1.24-1.41-2.2-2.43-2.89-1.02-.69-2.29-1.03-3.8-1.03Z"/>
    <path class="cls-2" d="m298.77,475.93l13.07,26.89h.08v-26.89h1.66v29.63h-2.2l-13.11-26.89h-.08v26.89h-1.66v-29.63h2.24Z"/>
    <path class="cls-2" d="m318.32,475.93h1.66v29.63h-1.66v-29.63Z"/>
    <path class="cls-2" d="m325.08,475.93h14.15v1.49h-12.49v11.91h11.66v1.49h-11.66v13.24h12.87v1.49h-14.53v-29.63Z"/>
  </g>
  <path class="cls-2" d="m345.17,493.68h7.84v1.41h-7.84v-1.41Z"/>
  <g>
    <path class="cls-2" d="m359.74,475.93h7.97c1.44,0,2.66.18,3.65.54,1,.36,1.8.87,2.41,1.52s1.04,1.43,1.31,2.33c.26.9.39,1.91.39,3.02,0,2-.5,3.55-1.5,4.66-1,1.11-2.34,1.78-4.01,2v.08c2.17.17,3.79.93,4.86,2.3s1.61,3.08,1.61,5.15c0,2.51-.75,4.48-2.24,5.9-1.49,1.42-3.57,2.13-6.22,2.13h-8.22v-29.63Zm7.42,13.4c1.94,0,3.53-.47,4.77-1.42,1.25-.95,1.87-2.47,1.87-4.55,0-3.96-1.96-5.93-5.89-5.93h-6.52v11.91h5.76Zm.16,14.73c2.44,0,4.29-.49,5.55-1.47,1.26-.98,1.89-2.69,1.89-5.12,0-1.31-.19-2.39-.57-3.24-.38-.85-.9-1.52-1.58-2.03-.67-.51-1.47-.86-2.4-1.07-.92-.21-1.92-.31-2.98-.31h-5.84v13.24h5.93Z"/>
    <path class="cls-2" d="m380.44,475.93h8.67c1.02,0,1.98.15,2.88.46.9.3,1.68.78,2.34,1.41.66.64,1.18,1.44,1.56,2.41.37.97.56,2.14.56,3.5,0,1.97-.51,3.63-1.52,4.99s-2.5,2.15-4.45,2.37v.08c1.22.08,2.21.32,2.96.7.75.39,1.34.9,1.75,1.55s.7,1.4.83,2.26c.14.85.21,1.79.21,2.81v3.1c0,.86.07,1.58.22,2.17.15.59.43,1.19.85,1.8h-1.99c-.22-.44-.4-1-.54-1.67-.14-.67-.21-1.45-.21-2.33v-3.01c0-1.05-.08-1.98-.25-2.81-.17-.83-.48-1.52-.93-2.08-.45-.56-1.07-1-1.85-1.3-.79-.3-1.78-.45-2.99-.45h-6.48v13.65h-1.66v-29.63Zm7.29,14.48c.84,0,1.68-.08,2.52-.25s1.6-.5,2.27-.99c.67-.5,1.22-1.17,1.64-2.04.42-.87.63-2,.63-3.4,0-1.98-.53-3.53-1.58-4.64-1.05-1.11-2.5-1.67-4.35-1.67h-6.77v12.99h5.63Z"/>
    <path class="cls-2" d="m402.44,497.65c0,2.07.51,3.74,1.53,5.01,1.02,1.27,2.7,1.9,5.02,1.9,2.19,0,3.83-.63,4.92-1.9,1.09-1.27,1.64-2.94,1.64-5.01v-21.72h1.66v21.46c0,1.66-.24,3.05-.71,4.17-.47,1.12-1.09,2.01-1.87,2.68-.78.66-1.65,1.13-2.64,1.41s-1.99.42-3.01.42-2.03-.12-3.01-.35c-.98-.24-1.86-.68-2.63-1.33-.78-.65-1.4-1.54-1.87-2.66-.47-1.12-.71-2.57-.71-4.34v-21.46h1.66v21.72Z"/>
    <path class="cls-2" d="m428.92,492.11l-7.39,13.45h-1.87l8.38-15.06-7.68-14.57h1.66l6.97,12.82,7.06-12.82h1.66l-7.8,14.57,8.3,15.06h-1.91l-7.39-13.45Z"/>
    <path class="cls-2" d="m441.03,475.93h14.15v1.49h-12.49v11.91h11.66v1.49h-11.66v13.24h12.87v1.49h-14.53v-29.63Z"/>
    <path class="cls-2" d="m458.67,475.93h1.66v28.14h12.49v1.49h-14.15v-29.63Z"/>
    <path class="cls-2" d="m476.31,475.93h1.66v28.14h12.49v1.49h-14.15v-29.63Z"/>
    <path class="cls-2" d="m493.95,475.93h14.15v1.49h-12.49v11.91h11.66v1.49h-11.66v13.24h12.87v1.49h-14.53v-29.63Z"/>
    <path class="cls-2" d="m512.16,497.95c0,.93.15,1.8.46,2.61.31.81.75,1.51,1.32,2.09s1.28,1.05,2.12,1.4c.84.34,1.81.51,2.9.51,1.04,0,1.98-.17,2.84-.52.85-.34,1.58-.82,2.18-1.42.6-.61,1.07-1.31,1.41-2.12s.5-1.68.5-2.62-.13-1.78-.38-2.46c-.25-.67-.61-1.24-1.08-1.71-.47-.47-1.04-.87-1.71-1.2s-1.42-.65-2.25-.95l-3.38-1.16c-2-.66-3.51-1.54-4.53-2.61s-1.52-2.63-1.52-4.65c0-1.19.19-2.26.58-3.22.39-.96.93-1.76,1.64-2.43.71-.66,1.54-1.18,2.51-1.54.97-.36,2.03-.54,3.2-.54,2.74,0,4.74.73,6.02,2.18,1.27,1.45,1.91,3.41,1.91,5.87h-1.66c0-1.97-.48-3.55-1.45-4.75-.97-1.2-2.52-1.8-4.65-1.8-.84,0-1.65.1-2.42.31-.77.21-1.46.55-2.06,1.03-.6.48-1.08,1.11-1.43,1.88-.35.77-.53,1.73-.53,2.88,0,1.62.4,2.86,1.21,3.73s1.86,1.52,3.17,1.96l4.42,1.54c.95.33,1.79.71,2.55,1.12.75.42,1.38.92,1.9,1.51.51.6.91,1.29,1.19,2.1s.42,1.74.42,2.82c0,1.33-.23,2.5-.68,3.53-.46,1.02-1.07,1.89-1.85,2.59-.77.71-1.69,1.24-2.74,1.6-1.05.36-2.16.54-3.32.54-1.72,0-3.12-.26-4.21-.79-1.09-.53-1.96-1.18-2.59-1.97s-1.07-1.62-1.31-2.51c-.24-.88-.35-1.69-.35-2.41v-1.95h1.66v1.52Z"/>
  </g>
</svg>